<svg width="44" height="44" viewBox="0 0 44 44" fill="none" xmlns="http://www.w3.org/2000/svg">
<circle cx="22" cy="22" r="22" fill="#F2F8FF"/>
<path d="M22 11.44C20.9406 11.44 20.08 12.3006 20.08 13.36C20.08 14.2525 20.695 14.9969 21.52 15.2125V16.72H17.215C15.0887 16.72 13.36 18.4488 13.36 20.575V22.48H10.96V28.24H13.36V32.56H30.64V28.24H33.04V22.48H30.64V20.575C30.64 18.4488 28.9112 16.72 26.785 16.72H22.48V15.2125C23.3068 14.9969 23.92 14.2525 23.92 13.36C23.92 12.3006 23.0593 11.44 22 11.44ZM22 12.4C22.5287 12.4 22.96 12.8313 22.96 13.36C22.96 13.8888 22.5287 14.32 22 14.32C21.4712 14.32 21.04 13.8888 21.04 13.36C21.04 12.8313 21.4712 12.4 22 12.4ZM17.215 17.68H26.785C28.3806 17.68 29.68 18.9794 29.68 20.575V31.6H26.8V27.76H17.2V31.6H14.32V20.575C14.32 18.9794 15.6193 17.68 17.215 17.68ZM18.88 20.56C17.6893 20.56 16.72 21.5294 16.72 22.72C16.72 23.9106 17.6893 24.88 18.88 24.88C20.0706 24.88 21.04 23.9106 21.04 22.72C21.04 21.5294 20.0706 20.56 18.88 20.56ZM25.12 20.56C23.9293 20.56 22.96 21.5294 22.96 22.72C22.96 23.9106 23.9293 24.88 25.12 24.88C26.3106 24.88 27.28 23.9106 27.28 22.72C27.28 21.5294 26.3106 20.56 25.12 20.56ZM18.88 21.52C19.5418 21.52 20.08 22.0581 20.08 22.72C20.08 23.3819 19.5418 23.92 18.88 23.92C18.2181 23.92 17.68 23.3819 17.68 22.72C17.68 22.0581 18.2181 21.52 18.88 21.52ZM25.12 21.52C25.7818 21.52 26.32 22.0581 26.32 22.72C26.32 23.3819 25.7818 23.92 25.12 23.92C24.4581 23.92 23.92 23.3819 23.92 22.72C23.92 22.0581 24.4581 21.52 25.12 21.52ZM11.92 23.44H13.36V27.28H11.92V23.44ZM30.64 23.44H32.08V27.28H30.64V23.44ZM18.16 28.72H20.08V31.6H18.16V28.72ZM21.04 28.72H22.96V31.6H21.04V28.72ZM23.92 28.72H25.84V31.6H23.92V28.72Z" fill="#19D28B"/>
</svg>
